<svg width="569" height="1031" viewBox="0 0 569 1031" fill="none" xmlns="http://www.w3.org/2000/svg">
<path d="M247 15L283.5 1H296.5L331.5 23.5L341.5 57.5V90L312 145H265.5L231.5 97V57.5L247 15Z" stroke="black"/>
<path d="M257 61.5H278L293.5 54.5L315 61.5L323 77L295 87H265.5L247 77L257 61.5Z" stroke="#FF0000"/>
<path d="M131 231L151 193L204.5 159L245.5 146.5L267 159L324.5 146.5L360 159L396.5 173L420.5 207L413.5 243.5L381 283.5L303.5 299L190.5 283.5L176.5 256.5L131 231Z" stroke="#0000FF"/>
<path d="M149 327.5H193.5L211 295L193.5 249L137 231.5L118 260L127.5 308.5L149 327.5Z" stroke="#008000"/>
<path d="M404.5 231.5L380 260V295V327.5L411 333L434 308.5L451.5 281.5L442.5 231.5H404.5Z" stroke="#008000"/>
<path d="M53 523.5H83L138 422L151.5 353L177.5 291V265.5L151.5 252L97.5 341L66.5 465.5L53 523.5Z" stroke="#800080"/>
<path d="M461 465.5L492.5 523.5L523.5 508.5L514 483L504.5 441L474.5 353L461 320.5L439.5 284L426 252L406 243.5L396.5 275L418 353L439.5 422L461 465.5Z" stroke="#800080"/>
<path d="M23.5 634H53L78.5 612.5V581.5V552L60 519.5H34L1.5 564L23.5 612.5V634Z" stroke="#FFC0CB"/>
<path d="M491 581.5V519.5H533L568 564L557 612.5L533 634L491 612.5V581.5Z" stroke="#FFC0CB"/>
<path d="M266.5 192.5L188 208.5V349L181.5 431.5L188 510L222 530H291L330 522H389.5V495L379 435.5V406V364V327.5L399 297.5L379 231.5L361 192.5H266.5Z" stroke="#808080"/>
<path d="M393.5 561.5H180V433L191 403L219.5 395L331.5 403H384L393.5 449V561.5Z" stroke="#A52A2A"/>
<path d="M260 915.5H226L201.5 810L214 733V688.5L178.5 598L188 441L273.5 522V564V733L260 915.5Z" stroke="#FFFF00"/>
<path d="M319.5 873.5V915.5H353L362.5 885.5V773.5L353 733L377.5 648L388 580V441L343.5 479L293.5 522V541V688.5L307 746.5L293.5 799L319.5 873.5Z" stroke="#FFFF00"/>
<path d="M216.5 975L226 921H258.5L269.5 985.5V1030H226L216.5 1007.5V975Z" stroke="#FFA500"/>
<path d="M307 968L318 921H350.5V957.5L362.5 985.5L338 1030L307 1021V1007.5V968Z" stroke="#FFA500"/>
</svg>
